<svg width="32" height="32" viewBox="0 0 32 32" fill="none" xmlns="http://www.w3.org/2000/svg">
<g clip-path="url(#clip0_1024_556)">
<mask id="mask0_1024_556" style="mask-type:alpha" maskUnits="userSpaceOnUse" x="0" y="0" width="32" height="32">
<rect width="32" height="32" fill="#D9D9D9"/>
</mask>
<g mask="url(#mask0_1024_556)">
<path d="M0 5.2C0 4.08438 0 3.52657 0.11052 3.06622C0.461658 1.60362 1.60362 0.461658 3.06622 0.11052C3.52657 0 4.08438 0 5.2 0H26.8C27.9156 0 28.4734 0 28.9338 0.11052C30.3964 0.461658 31.5383 1.60362 31.8895 3.06622C32 3.52657 32 4.08438 32 5.2V26.8C32 27.9156 32 28.4734 31.8895 28.9338C31.5383 30.3964 30.3964 31.5383 28.9338 31.8895C28.4734 32 27.9156 32 26.8 32H5.2C4.08438 32 3.52657 32 3.06622 31.8895C1.60362 31.5383 0.461658 30.3964 0.11052 28.9338C0 28.4734 0 27.9156 0 26.8V5.2Z" fill="black"/>
<path fill-rule="evenodd" clip-rule="evenodd" d="M6.67345 2.92101C7.57685 2.46541 8.68362 2.25 10 2.25V4.75C8.94138 4.75 8.25128 4.92522 7.7992 5.15321C7.36834 5.3705 7.09638 5.66351 6.9059 6.02982C6.47349 6.86137 6.43441 8.08532 6.499 9.70004C6.50582 9.87042 6.51366 10.0456 6.52164 10.2237C6.54857 10.8248 6.57699 11.4591 6.57223 12.0549C6.56602 12.8305 6.50554 13.6557 6.27319 14.4134C6.03406 15.1931 5.59757 15.9478 4.82233 16.4883C4.05953 17.0201 3.10405 17.25 2 17.25V14.75C2.77095 14.75 3.17484 14.5893 3.39251 14.4375C3.59775 14.2944 3.76282 14.0725 3.88306 13.6804C4.01008 13.2662 4.06679 12.7242 4.07231 12.0349C4.07649 11.5115 4.05228 10.9692 4.02609 10.3827C4.01764 10.1933 4.00898 9.99938 4.001 9.79996C3.94059 8.28968 3.90151 6.38863 4.68785 4.87643C5.10675 4.07087 5.74884 3.38731 6.67345 2.92101Z" fill="white"/>
<path fill-rule="evenodd" clip-rule="evenodd" d="M6.67345 29.079C7.57685 29.5346 8.68362 29.75 10 29.75V27.25C8.94138 27.25 8.25128 27.0748 7.7992 26.8468C7.36834 26.6295 7.09638 26.3365 6.9059 25.9702C6.47349 25.1386 6.43441 23.9147 6.499 22.3C6.50582 22.1296 6.51366 21.9544 6.52164 21.7763C6.54857 21.1752 6.57699 20.5409 6.57223 19.9451C6.56602 19.1695 6.50554 18.3443 6.27319 17.5866C6.03406 16.8069 5.59757 16.0522 4.82233 15.5117C4.05953 14.9799 3.10405 14.75 2 14.75V17.25C2.77095 17.25 3.17484 17.4107 3.39251 17.5625C3.59775 17.7056 3.76282 17.9275 3.88306 18.3196C4.01008 18.7338 4.06679 19.2758 4.07231 19.9651C4.07649 20.4885 4.05228 21.0308 4.02609 21.6173C4.01764 21.8067 4.00898 22.0006 4.001 22.2C3.94059 23.7103 3.90151 25.6114 4.68785 27.1236C5.10675 27.9291 5.74884 28.6127 6.67345 29.079Z" fill="white"/>
<path fill-rule="evenodd" clip-rule="evenodd" d="M25.3265 2.92101C24.4232 2.46541 23.3164 2.25 22 2.25V4.75C23.0586 4.75 23.7487 4.92522 24.2008 5.15321C24.6317 5.3705 24.9036 5.66351 25.0941 6.02982C25.5265 6.86137 25.5656 8.08532 25.501 9.70004C25.4942 9.87042 25.4863 10.0456 25.4784 10.2237C25.4514 10.8248 25.423 11.4591 25.4278 12.0549C25.434 12.8305 25.4945 13.6557 25.7268 14.4134C25.9659 15.1931 26.4024 15.9478 27.1777 16.4883C27.9405 17.0201 28.896 17.25 30 17.25V14.75C29.229 14.75 28.8252 14.5893 28.6075 14.4375C28.4023 14.2944 28.2372 14.0725 28.1169 13.6804C27.9899 13.2662 27.9332 12.7242 27.9277 12.0349C27.9235 11.5115 27.9477 10.9692 27.9739 10.3827C27.9824 10.1933 27.991 9.99938 27.999 9.79996C28.0594 8.28968 28.0985 6.38863 27.3121 4.87643C26.8933 4.07087 26.2512 3.38731 25.3265 2.92101Z" fill="white"/>
<path fill-rule="evenodd" clip-rule="evenodd" d="M25.3265 29.079C24.4232 29.5346 23.3164 29.75 22 29.75V27.25C23.0586 27.25 23.7487 27.0748 24.2008 26.8468C24.6317 26.6295 24.9036 26.3365 25.0941 25.9702C25.5265 25.1386 25.5656 23.9147 25.501 22.3C25.4942 22.1296 25.4863 21.9544 25.4784 21.7763C25.4514 21.1752 25.423 20.5409 25.4278 19.9451C25.434 19.1695 25.4945 18.3443 25.7268 17.5866C25.9659 16.8069 26.4024 16.0522 27.1777 15.5117C27.9405 14.9799 28.896 14.75 30 14.75V17.25C29.229 17.25 28.8252 17.4107 28.6075 17.5625C28.4023 17.7056 28.2372 17.9275 28.1169 18.3196C27.9899 18.7338 27.9332 19.2758 27.9277 19.9651C27.9235 20.4885 27.9477 21.0308 27.9739 21.6173C27.9824 21.8067 27.991 22.0006 27.999 22.2C28.0594 23.7103 28.0985 25.6114 27.3121 27.1236C26.8933 27.9291 26.2512 28.6127 25.3265 29.079Z" fill="white"/>
<circle cx="12.5" cy="9.5" r="2.5" fill="white"/>
<circle cx="19.5" cy="9.5" r="2.5" fill="white"/>
<circle cx="12.5" cy="22.5" r="2.5" fill="white"/>
<circle cx="19.5" cy="22.5" r="2.25" stroke="white" stroke-width="0.5"/>
<circle cx="12.5" cy="16" r="2.5" fill="white"/>
<circle cx="19.5" cy="16" r="2.25" stroke="white" stroke-width="0.5"/>
</g>
</g>
<defs>
<clipPath id="clip0_1024_556">
<rect width="32" height="32" fill="white"/>
</clipPath>
</defs>
</svg>
